<?xml version="1.0" encoding="UTF-8"?>
<svg id="Camada_1" data-name="Camada 1" xmlns="http://www.w3.org/2000/svg" viewBox="0 0 214.46 214.46">
  <defs>
    <style>
      .cls-1 {
        stroke-width: 0px;
      }
    </style>
  </defs>
  <path class="cls-1" d="M205.02,74.16c-11.42-11.55-30.62-13.01-44.74-5.84-4.63,2.35-9.06,5.21-13.45,7.98-4.24,2.68-8.43,5.45-12.55,8.31-7.14,4.97-14.08,10.24-20.77,15.81-1.94,1.62-3.86,3.26-5.76,4.93-5.04-4.35-10.12-8.63-15.44-12.67-7.55-5.74-15.36-11.14-23.38-16.21-7.76-4.91-15.57-10.31-24.79-11.88-8.01-1.37-16.46-.46-23.9,2.88-7.39,3.31-13.54,9.03-16.93,16.43C.04,91.07-.82,99.21.79,106.93c1.66,7.99,6.05,15.16,12.55,20.12,7.3,5.57,16.36,8.39,25.47,8.92,10.68.62,21.28-1.85,31.25-5.51,9.52-3.49,18.67-8.11,27.21-13.58,3.27-2.09,6.44-4.33,9.53-6.68,6.93,5.92,14.71,10.71,22.94,14.61,9.02,4.27,18.48,8.06,28.31,9.96,9.79,1.89,20.07,1.86,29.58-1.33,8.47-2.84,16.36-7.93,21.25-15.56,8.47-13.23,7.35-32.37-3.87-43.71ZM80.3,123.19c-9.02,4.36-18.62,8.04-28.59,9.44-9.23,1.3-18.8.5-27.3-3.5-7.57-3.55-13.8-9.47-17-17.26-5.85-14.26-1.9-32.52,11.76-40.74,3.08-1.85,6.46-3.08,9.92-3.75,3.53-.68,7.36-.79,11.13-.28,3.69.5,7.3,1.58,10.64,3.22,4.54,2.22,8.84,5.07,13.12,7.75,14.3,8.96,27.79,18.99,40.49,30.1-7.5,5.82-15.62,10.89-24.17,15.02ZM206.95,113.03c-3.25,7.66-9.52,13.46-17.11,16.75-8.34,3.61-17.76,4.14-26.78,2.68-10-1.62-19.55-5.36-28.69-9.61-8.54-3.97-16.63-8.83-23.75-15.02-.14-.12-.27-.24-.41-.35,12.62-11.21,26.22-21.24,40.53-30.2,2.32-1.45,4.65-2.87,7-4.27,2.03-1.2,3.88-2.35,5.92-3.27,3.38-1.53,6.73-2.4,10.45-2.77,7.21-.71,14.93.92,21.25,4.86,13.58,8.47,17.66,26.9,11.58,41.21Z"/>
  <path class="cls-1" d="M153.87,15.06c-16.25-.09-30.85,12.45-35.76,27.51-1.61,4.94-2.72,10.09-3.87,15.15-1.11,4.89-2.11,9.81-2.99,14.75-1.53,8.57-2.71,17.2-3.51,25.86-.23,2.52-.43,5.04-.59,7.56-6.64.49-13.26,1.06-19.87,1.96-9.4,1.28-18.74,2.98-28,5.07-8.95,2.02-18.3,3.72-25.93,9.13-6.63,4.7-11.96,11.32-14.87,18.94-2.88,7.57-3.19,15.96-.35,23.59,2.75,7.39,7.9,13.75,14.49,18.07,6.82,4.47,15,6.44,23.1,5.35,9.1-1.23,17.5-5.63,24.32-11.7,7.99-7.11,13.74-16.36,18.2-25.99,4.27-9.2,7.47-18.94,9.64-28.84.83-3.79,1.49-7.62,2.02-11.47,9.09-.71,17.98-2.83,26.55-5.9,9.39-3.36,18.77-7.37,27.06-12.97,8.25-5.58,15.5-12.88,19.98-21.86,3.98-8,5.96-17.18,4.02-26.03-3.36-15.35-17.69-28.08-33.64-28.17ZM100.34,137.92c-3.29,9.46-7.48,18.86-13.54,26.9-5.61,7.44-12.94,13.64-21.78,16.83-7.86,2.84-16.45,3.06-24.22-.18-14.22-5.94-24.34-21.65-20.49-37.13.87-3.49,2.39-6.75,4.37-9.67,2.02-2.98,4.64-5.76,7.67-8.07,2.96-2.25,6.28-4.04,9.8-5.25,4.78-1.64,9.84-2.67,14.75-3.8,16.45-3.78,33.08-6.23,49.91-7.35-1.19,9.42-3.35,18.75-6.47,27.71ZM182.71,41.18c3.11,7.72,2.79,16.25-.26,23.94-3.35,8.45-9.62,15.49-17.04,20.84-8.22,5.93-17.61,10.03-27.09,13.49-8.84,3.23-18,5.51-27.42,6.17-.18.01-.36.03-.54.04.99-16.85,3.52-33.57,7.3-50.01.61-2.66,1.26-5.32,1.93-7.97.58-2.28,1.08-4.4,1.87-6.5,1.31-3.47,3.06-6.45,5.43-9.35,4.59-5.6,11.21-9.91,18.47-11.59,15.59-3.61,31.51,6.53,37.33,20.95Z"/>
  <path class="cls-1" d="M140.11,205.02c11.55-11.42,13.01-30.62,5.84-44.74-2.35-4.63-5.21-9.06-7.98-13.45-2.68-4.24-5.45-8.43-8.31-12.55-4.97-7.14-10.24-14.08-15.81-20.77-1.62-1.94-3.26-3.86-4.93-5.76,4.35-5.04,8.63-10.12,12.67-15.44,5.74-7.55,11.14-15.36,16.21-23.38,4.91-7.76,10.31-15.57,11.88-24.79,1.37-8.01.46-16.46-2.88-23.9-3.31-7.39-9.03-13.54-16.43-16.93C123.21.04,115.06-.82,107.35.79c-7.99,1.66-15.16,6.05-20.12,12.55-5.57,7.3-8.39,16.36-8.92,25.47-.62,10.68,1.85,21.28,5.51,31.25,3.49,9.52,8.11,18.67,13.58,27.21,2.09,3.27,4.33,6.44,6.68,9.53-5.92,6.93-10.71,14.71-14.61,22.94-4.27,9.02-8.06,18.48-9.96,28.31-1.89,9.79-1.86,20.07,1.33,29.58,2.84,8.47,7.93,16.36,15.56,21.25,13.23,8.47,32.37,7.35,43.71-3.87ZM91.09,80.3c-4.36-9.02-8.04-18.62-9.44-28.59-1.3-9.23-.5-18.8,3.5-27.3,3.55-7.57,9.47-13.8,17.26-17,14.26-5.85,32.52-1.9,40.74,11.76,1.85,3.08,3.08,6.46,3.75,9.92.68,3.53.79,7.36.28,11.13-.5,3.69-1.58,7.3-3.22,10.64-2.22,4.54-5.07,8.84-7.75,13.12-8.96,14.3-18.99,27.79-30.1,40.49-5.82-7.5-10.89-15.62-15.02-24.17ZM101.24,206.95c-7.66-3.25-13.46-9.52-16.75-17.11-3.61-8.34-4.14-17.76-2.68-26.78,1.62-10,5.36-19.55,9.61-28.69,3.97-8.54,8.83-16.63,15.02-23.75.12-.14.24-.27.35-.41,11.21,12.62,21.24,26.22,30.2,40.53,1.45,2.32,2.87,4.65,4.27,7,1.2,2.03,2.35,3.88,3.27,5.92,1.53,3.38,2.4,6.73,2.77,10.45.71,7.21-.92,14.93-4.86,21.25-8.47,13.58-26.9,17.66-41.21,11.58Z"/>
  <path class="cls-1" d="M200.98,153.89c.09-16.25-12.45-30.85-27.51-35.76-4.94-1.61-10.09-2.72-15.15-3.87-4.89-1.11-9.81-2.11-14.75-2.99-8.57-1.53-17.2-2.71-25.86-3.51-2.52-.23-5.04-.43-7.56-.59-.49-6.64-1.06-13.26-1.96-19.87-1.28-9.4-2.98-18.74-5.07-28-2.02-8.95-3.72-18.3-9.13-25.93-4.7-6.63-11.32-11.96-18.94-14.87-7.57-2.88-15.96-3.19-23.59-.35-7.39,2.75-13.75,7.9-18.07,14.49-4.47,6.82-6.44,15-5.35,23.1,1.23,9.1,5.63,17.5,11.7,24.32,7.11,7.99,16.36,13.74,25.99,18.2,9.2,4.27,18.94,7.47,28.84,9.64,3.79.83,7.62,1.49,11.47,2.02.71,9.09,2.83,17.98,5.9,26.55,3.36,9.39,7.37,18.77,12.97,27.06,5.58,8.25,12.88,15.5,21.86,19.98,8,3.98,17.18,5.96,26.03,4.02,15.35-3.36,28.08-17.69,28.17-33.64ZM78.12,100.36c-9.46-3.29-18.86-7.48-26.9-13.54-7.44-5.61-13.64-12.94-16.83-21.78-2.84-7.86-3.06-16.45.18-24.22,5.94-14.22,21.65-24.34,37.13-20.49,3.49.87,6.75,2.39,9.67,4.37,2.98,2.02,5.76,4.64,8.07,7.67,2.25,2.96,4.04,6.28,5.25,9.8,1.64,4.78,2.67,9.84,3.8,14.75,3.78,16.45,6.23,33.08,7.35,49.91-9.42-1.19-18.75-3.35-27.71-6.47ZM174.85,182.73c-7.72,3.11-16.25,2.79-23.94-.26-8.45-3.35-15.49-9.62-20.84-17.04-5.93-8.22-10.03-17.61-13.49-27.09-3.23-8.84-5.51-18-6.17-27.42-.01-.18-.03-.36-.04-.54,16.85.99,33.57,3.52,50.01,7.3,2.66.61,5.32,1.26,7.97,1.93,2.28.58,4.4,1.08,6.5,1.87,3.47,1.31,6.45,3.06,9.35,5.43,5.6,4.59,9.91,11.21,11.59,18.47,3.61,15.59-6.53,31.51-20.95,37.33Z"/>
</svg>